<svg width="12" height="12" viewBox="0 0 12 12" fill="none" xmlns="http://www.w3.org/2000/svg">
<path d="M5.45938 11.5206C5.34938 10.8706 5.05938 10.1706 4.58938 9.42062C4.11938 8.66062 3.44938 7.95562 2.57938 7.30562C1.71938 6.65562 0.859375 6.24062 -0.000624958 6.06062V5.43062C0.849375 5.23062 1.66438 4.86062 2.44438 4.32062C3.23438 3.77062 3.89438 3.11062 4.42438 2.34062C4.96438 1.55062 5.30938 0.770624 5.45938 0.000624835H6.08938C6.17938 0.500624 6.35938 1.01562 6.62938 1.54562C6.89938 2.06562 7.24438 2.56562 7.66438 3.04562C8.09438 3.51562 8.57438 3.94062 9.10438 4.32062C9.89438 4.88062 10.6994 5.25062 11.5194 5.43062V6.06062C10.9694 6.17062 10.3994 6.39562 9.80938 6.73562C9.22938 7.07562 8.68938 7.48062 8.18938 7.95062C7.68938 8.41062 7.27938 8.89562 6.95938 9.40562C6.48938 10.1556 6.19938 10.8606 6.08938 11.5206H5.45938Z" fill="#BA8BBE"/>
</svg>
